<svg xmlns="http://www.w3.org/2000/svg" viewBox="0 0 64 64" role="img" aria-label="Safeviate">
  <defs>
    <linearGradient id="bg" x1="0" y1="0" x2="1" y2="1">
      <stop offset="0%" stop-color="#0b3d5c" />
      <stop offset="100%" stop-color="#1572a1" />
    </linearGradient>
  </defs>
  <rect x="2" y="2" width="60" height="60" rx="14" fill="url(#bg)" />
  <path
    d="M43 18c-2-2-5-3-9-3-6 0-11 3-11 8 0 4 3 6 10 7 5 1 7 2 7 4s-2 4-6 4c-4 0-7-1-10-4l-5 5c4 4 9 6 15 6 8 0 14-4 14-10 0-5-3-8-11-9-4-1-6-1-6-3 0-2 2-3 5-3 3 0 5 1 7 2z"
    fill="#e9f6ff"
  />
</svg>
